<svg width="36" height="36" viewBox="0 0 36 36" fill="none" xmlns="http://www.w3.org/2000/svg">
<circle cx="18" cy="18" r="18" fill="white"/>
<path d="M22.2272 8H18.8566V21.6232C18.8566 23.2464 17.5602 24.5797 15.947 24.5797C14.3337 24.5797 13.0373 23.2464 13.0373 21.6232C13.0373 20.029 14.3049 18.7246 15.8606 18.6667V15.2464C12.4323 15.3043 9.66675 18.1159 9.66675 21.6232C9.66675 25.1594 12.49 28 15.9758 28C19.4616 28 22.2848 25.1304 22.2848 21.6232V14.6377C23.5524 15.5652 25.108 16.1159 26.7501 16.1449V12.7246C24.215 12.6377 22.2272 10.5507 22.2272 8Z" fill="#656879"/>
</svg>
