<svg width="286" height="36" viewBox="0 0 286 36" fill="none" xmlns="http://www.w3.org/2000/svg">
<circle cx="18" cy="18" r="18" fill="white"/>
<rect width="20" height="20" transform="translate(8 8)" fill="white"/>
<path d="M28 18C28 12.4771 23.5229 8 18 8C12.4771 8 8 12.4771 8 18C8 22.9912 11.6568 27.1283 16.4375 27.8785V20.8906H13.8984V18H16.4375V15.7969C16.4375 13.2906 17.9305 11.9063 20.2146 11.9063C21.3084 11.9063 22.4531 12.1016 22.4531 12.1016V14.5625H21.1922C19.95 14.5625 19.5625 15.3334 19.5625 16.125V18H22.3359L21.8926 20.8906H19.5625V27.8785C24.3432 27.1283 28 22.9912 28 18Z" fill="#656879"/>
<circle cx="168" cy="18" r="18" fill="white"/>
<path d="M168 8C162.477 8 158 12.4766 158 18C158 22.2383 160.637 25.8555 164.355 27.3125C164.27 26.5195 164.188 25.3086 164.391 24.4453C164.574 23.6641 165.563 19.4766 165.563 19.4766C165.563 19.4766 165.262 18.8789 165.262 17.9922C165.262 16.6016 166.066 15.5625 167.07 15.5625C167.922 15.5625 168.336 16.2031 168.336 16.9727C168.336 17.832 167.789 19.1133 167.508 20.3008C167.273 21.2969 168.008 22.1094 168.988 22.1094C170.766 22.1094 172.133 20.2344 172.133 17.5312C172.133 15.1367 170.414 13.4609 167.957 13.4609C165.113 13.4609 163.441 15.5937 163.441 17.8008C163.441 18.6602 163.773 19.582 164.187 20.082C164.27 20.1797 164.281 20.2695 164.258 20.3672C164.184 20.6836 164.012 21.3633 163.98 21.5C163.938 21.6836 163.836 21.7227 163.645 21.6328C162.395 21.0508 161.613 19.2266 161.613 17.7578C161.613 14.6016 163.906 11.707 168.219 11.707C171.688 11.707 174.383 14.1797 174.383 17.4844C174.383 20.9297 172.211 23.7031 169.195 23.7031C168.184 23.7031 167.23 23.1758 166.902 22.5547C166.902 22.5547 166.402 24.4648 166.281 24.9336C166.055 25.8008 165.445 26.8906 165.039 27.5547C165.977 27.8438 166.969 28 168 28C173.523 28 178 23.5234 178 18C178 12.4766 173.523 8 168 8Z" fill="#656879"/>
<circle cx="218" cy="18" r="18" fill="white"/>
<path fill-rule="evenodd" clip-rule="evenodd" d="M214.8 8H221.2C223.187 8 224.8 9.61271 224.8 11.6C224.8 12.9927 224.008 14.2013 222.85 14.8C224.008 15.3986 224.8 16.6073 224.8 18C224.8 19.9873 223.187 21.6 221.2 21.6C220.069 21.6 219.06 21.0782 218.4 20.2624V24.4C218.4 26.3873 216.787 28 214.8 28C212.813 28 211.2 26.3873 211.2 24.4C211.2 23.0073 211.992 21.7986 213.15 21.2C211.992 20.6013 211.2 19.3926 211.2 18C211.2 16.6073 211.992 15.3986 213.15 14.8C211.992 14.2013 211.2 12.9927 211.2 11.6C211.2 9.61271 212.813 8 214.8 8ZM212 11.6C212 10.0545 213.254 8.8 214.8 8.8H217.6V14.4H214.8L214.791 14.4C213.25 14.3953 212 13.1426 212 11.6ZM217.6 17.9619C217.6 17.9746 217.6 17.9873 217.6 18C217.6 18.0127 217.6 18.0254 217.6 18.0381V20.7999H214.8C213.254 20.8 212 19.5455 212 18C212 16.4574 213.25 15.2046 214.791 15.2L214.8 15.2H217.6L217.6 17.9619ZM218.4 18.0335V17.9664C218.418 16.4402 219.659 15.2061 221.188 15.2H221.2C221.203 15.2 221.206 15.2 221.209 15.2C222.75 15.2046 224 16.4574 224 18C224 19.5455 222.745 20.8 221.2 20.8C219.666 20.8 218.418 19.5636 218.4 18.0335ZM218.938 15.2C218.74 15.3598 218.56 15.54 218.4 15.7375V15.2H218.938ZM221.209 14.4C221.206 14.4 221.203 14.4 221.2 14.4C221.196 14.4 221.191 14.4 221.187 14.4H218.4V8.8H221.2C222.745 8.8 224 10.0545 224 11.6C224 13.1426 222.75 14.3953 221.209 14.4ZM214.8 21.5999C213.254 21.5999 212 22.8545 212 24.4C212 25.9455 213.254 27.2 214.8 27.2C216.346 27.2 217.6 25.9455 217.6 24.4V21.5999H214.8Z" fill="#656879"/>
<circle cx="268" cy="18" r="18" fill="white"/>
<path fill-rule="evenodd" clip-rule="evenodd" d="M268 8C262.479 8 258 12.4794 258 18C258 23.5206 262.479 28 268 28C273.51 28 278 23.5206 278 18C278 12.4794 273.51 8 268 8ZM274.605 12.6095C275.798 14.0629 276.514 15.9176 276.536 17.9241C276.254 17.8699 273.434 17.295 270.592 17.6529C270.527 17.5119 270.473 17.3601 270.408 17.2083C270.234 16.7961 270.039 16.3731 269.844 15.9718C272.989 14.692 274.421 12.8482 274.605 12.6095ZM268 9.47506C270.169 9.47506 272.154 10.2885 273.662 11.6226C273.51 11.8395 272.219 13.564 269.182 14.7028C267.783 12.1323 266.232 10.0282 265.994 9.70282C266.633 9.55097 267.306 9.47506 268 9.47506ZM264.367 10.2777C264.594 10.5813 266.113 12.6963 267.534 15.2126C263.542 16.2755 260.017 16.2538 259.638 16.2538C260.191 13.6074 261.98 11.4056 264.367 10.2777ZM259.453 18.0109C259.453 17.9241 259.453 17.8373 259.453 17.7506C259.822 17.7614 263.965 17.8156 268.228 16.5358C268.477 17.013 268.705 17.5011 268.922 17.9891C268.813 18.0217 268.694 18.0542 268.586 18.0867C264.182 19.5076 261.839 23.3904 261.644 23.7158C260.289 22.2082 259.453 20.2018 259.453 18.0109ZM268 26.5466C266.026 26.5466 264.204 25.8742 262.761 24.7462C262.913 24.4317 264.649 21.0911 269.464 19.41C269.486 19.3991 269.497 19.3991 269.518 19.3883C270.722 22.5011 271.21 25.1149 271.341 25.8633C270.31 26.308 269.182 26.5466 268 26.5466ZM272.761 25.0824C272.675 24.5618 272.219 22.0673 271.102 18.9978C273.781 18.5748 276.124 19.269 276.417 19.3666C276.048 21.7419 274.681 23.7917 272.761 25.0824Z" fill="#656879"/>
<circle cx="68" cy="18" r="18" fill="white"/>
<path d="M72.2272 8H68.8566V21.6232C68.8566 23.2464 67.5602 24.5797 65.947 24.5797C64.3337 24.5797 63.0373 23.2464 63.0373 21.6232C63.0373 20.029 64.3049 18.7246 65.8606 18.6667V15.2464C62.4323 15.3043 59.6667 18.1159 59.6667 21.6232C59.6667 25.1594 62.49 28 65.9758 28C69.4616 28 72.2848 25.1304 72.2848 21.6232V14.6377C73.5524 15.5652 75.108 16.1159 76.7501 16.1449V12.7246C74.215 12.6377 72.2272 10.5507 72.2272 8Z" fill="#656879"/>
<circle cx="118" cy="18" r="18" fill="white"/>
<path d="M127.801 14.0001C127.801 14.0001 127.605 12.6212 127.004 12.0157C126.242 11.2188 125.391 11.2149 125 11.168C122.203 10.9649 118.004 10.9649 118.004 10.9649H117.996C117.996 10.9649 113.797 10.9649 111 11.168C110.609 11.2149 109.758 11.2188 108.996 12.0157C108.395 12.6212 108.203 14.0001 108.203 14.0001C108.203 14.0001 108 15.6212 108 17.2383V18.754C108 20.3712 108.199 21.9922 108.199 21.9922C108.199 21.9922 108.395 23.3712 108.992 23.9766C109.754 24.7735 110.754 24.7462 111.199 24.8321C112.801 24.9844 118 25.0313 118 25.0313C118 25.0313 122.203 25.0235 125 24.8243C125.391 24.7774 126.242 24.7735 127.004 23.9766C127.605 23.3712 127.801 21.9922 127.801 21.9922C127.801 21.9922 128 20.3751 128 18.754V17.2383C128 15.6212 127.801 14.0001 127.801 14.0001ZM115.934 20.5938V14.9727L121.336 17.793L115.934 20.5938Z" fill="#656879"/>
</svg>
