<svg width="36" height="36" viewBox="0 0 36 36" fill="none" xmlns="http://www.w3.org/2000/svg">
<circle cx="18" cy="18" r="18" fill="white"/>
<path d="M27.8008 14.0001C27.8008 14.0001 27.6055 12.6212 27.0039 12.0157C26.2422 11.2188 25.3906 11.2149 25 11.168C22.2031 10.9649 18.0039 10.9649 18.0039 10.9649H17.9961C17.9961 10.9649 13.7969 10.9649 11 11.168C10.6094 11.2149 9.75781 11.2188 8.99609 12.0157C8.39453 12.6212 8.20312 14.0001 8.20312 14.0001C8.20312 14.0001 8 15.6212 8 17.2383V18.754C8 20.3712 8.19922 21.9922 8.19922 21.9922C8.19922 21.9922 8.39453 23.3712 8.99219 23.9766C9.75391 24.7735 10.7539 24.7462 11.1992 24.8321C12.8008 24.9844 18 25.0313 18 25.0313C18 25.0313 22.2031 25.0235 25 24.8243C25.3906 24.7774 26.2422 24.7735 27.0039 23.9766C27.6055 23.3712 27.8008 21.9922 27.8008 21.9922C27.8008 21.9922 28 20.3751 28 18.754V17.2383C28 15.6212 27.8008 14.0001 27.8008 14.0001ZM15.9336 20.5938V14.9727L21.3359 17.793L15.9336 20.5938Z" fill="#656879"/>
</svg>
