<svg width="36" height="36" viewBox="0 0 36 36" fill="none" xmlns="http://www.w3.org/2000/svg">
<circle cx="18" cy="18" r="18" fill="white"/>
<rect width="20" height="20" transform="translate(8 8)" fill="white"/>
<path d="M28 18C28 12.4771 23.5229 8 18 8C12.4771 8 8 12.4771 8 18C8 22.9912 11.6568 27.1283 16.4375 27.8785V20.8906H13.8984V18H16.4375V15.7969C16.4375 13.2906 17.9305 11.9063 20.2146 11.9063C21.3084 11.9063 22.4531 12.1016 22.4531 12.1016V14.5625H21.1922C19.95 14.5625 19.5625 15.3334 19.5625 16.125V18H22.3359L21.8926 20.8906H19.5625V27.8785C24.3432 27.1283 28 22.9912 28 18Z" fill="#656879"/>
</svg>
