<svg width="36" height="36" viewBox="0 0 36 36" fill="none" xmlns="http://www.w3.org/2000/svg">
<circle cx="18" cy="18" r="18" fill="white"/>
<path fill-rule="evenodd" clip-rule="evenodd" d="M14.8 8H21.1999C23.1872 8 24.8 9.61271 24.8 11.6C24.8 12.9927 24.008 14.2013 22.8501 14.8C24.008 15.3986 24.8 16.6073 24.8 18C24.8 19.9873 23.1872 21.6 21.1999 21.6C20.0694 21.6 19.0602 21.0782 18.4 20.2624V24.4C18.4 26.3873 16.7873 28 14.8 28C12.8127 28 11.2 26.3873 11.2 24.4C11.2 23.0073 11.9919 21.7986 13.1498 21.2C11.9919 20.6013 11.2 19.3926 11.2 18C11.2 16.6073 11.9919 15.3986 13.1498 14.8C11.9919 14.2013 11.2 12.9927 11.2 11.6C11.2 9.61271 12.8127 8 14.8 8ZM12 11.6C12 10.0545 13.2545 8.8 14.8 8.8H17.5999V14.4H14.8L14.7913 14.4C13.2498 14.3953 12 13.1426 12 11.6ZM17.6001 17.9619C17.5999 17.9746 17.5999 17.9873 17.5999 18C17.5999 18.0127 17.5999 18.0254 17.6001 18.0381V20.7999H14.8C13.2545 20.8 12 19.5455 12 18C12 16.4574 13.2498 15.2046 14.7914 15.2L14.8 15.2H17.5999L17.6001 17.9619ZM18.4 18.0335V17.9664C18.418 16.4402 19.6594 15.2061 21.1884 15.2H21.1999C21.2028 15.2 21.2056 15.2 21.2085 15.2C22.7501 15.2046 24 16.4574 24 18C24 19.5455 22.7454 20.8 21.1999 20.8C19.6656 20.8 18.418 19.5636 18.4 18.0335ZM18.9377 15.2C18.7402 15.3598 18.5599 15.54 18.4 15.7375V15.2H18.9377ZM21.2086 14.4C21.2057 14.4 21.2028 14.4 21.1999 14.4C21.1955 14.4 21.1912 14.4 21.1868 14.4H18.4V8.8H21.1999C22.7454 8.8 24 10.0545 24 11.6C24 13.1426 22.7501 14.3953 21.2086 14.4ZM14.8 21.5999C13.2545 21.5999 12 22.8545 12 24.4C12 25.9455 13.2545 27.2 14.8 27.2C16.3455 27.2 17.6001 25.9455 17.6001 24.4V21.5999H14.8Z" fill="#656879"/>
</svg>
