<svg width="36" height="36" viewBox="0 0 36 36" fill="none" xmlns="http://www.w3.org/2000/svg">
<circle cx="18" cy="18" r="18" fill="white"/>
<path fill-rule="evenodd" clip-rule="evenodd" d="M18 8C12.4794 8 8 12.4794 8 18C8 23.5206 12.4794 28 18 28C23.5098 28 28 23.5206 28 18C28 12.4794 23.5098 8 18 8ZM24.6052 12.6095C25.7983 14.0629 26.5141 15.9176 26.5358 17.9241C26.2538 17.8699 23.4338 17.295 20.5922 17.6529C20.5271 17.5119 20.4729 17.3601 20.4078 17.2083C20.2343 16.7961 20.0391 16.3731 19.8438 15.9718C22.9891 14.692 24.4208 12.8482 24.6052 12.6095ZM18 9.47506C20.1692 9.47506 22.154 10.2885 23.6616 11.6226C23.5097 11.8395 22.2191 13.564 19.1822 14.7028C17.7831 12.1323 16.2321 10.0282 15.9935 9.70282C16.6334 9.55097 17.3059 9.47506 18 9.47506ZM14.3666 10.2777C14.5944 10.5813 16.1128 12.6963 17.5336 15.2126C13.5423 16.2755 10.0174 16.2538 9.63774 16.2538C10.1909 13.6074 11.9805 11.4056 14.3666 10.2777ZM9.45336 18.0109C9.45336 17.9241 9.45336 17.8373 9.45336 17.7506C9.82213 17.7614 13.9653 17.8156 18.2278 16.5358C18.4773 17.013 18.705 17.5011 18.9219 17.9891C18.8134 18.0217 18.6941 18.0542 18.5857 18.0867C14.1822 19.5076 11.8395 23.3904 11.6443 23.7158C10.2885 22.2082 9.45336 20.2018 9.45336 18.0109ZM18 26.5466C16.026 26.5466 14.2039 25.8742 12.7614 24.7462C12.9132 24.4317 14.6486 21.0911 19.4642 19.41C19.4859 19.3991 19.4968 19.3991 19.5184 19.3883C20.7223 22.5011 21.2104 25.1149 21.3406 25.8633C20.3102 26.308 19.1822 26.5466 18 26.5466ZM22.7614 25.0824C22.6746 24.5618 22.2191 22.0673 21.1019 18.9978C23.7809 18.5748 26.1236 19.269 26.4165 19.3666C26.0478 21.7419 24.6811 23.7917 22.7614 25.0824Z" fill="#656879"/>
</svg>
