<svg width="364" height="352" viewBox="0 0 364 352" fill="none" xmlns="http://www.w3.org/2000/svg">
<path d="M82.124 334.452C95.816 330.816 111.484 323.428 135.256 328.092C193.028 339.432 170.816 305.784 207.876 316.224" stroke="#020064" stroke-width="4" stroke-linecap="round" stroke-linejoin="round"/>
<path d="M207.836 316.224C195.036 316.224 179.34 360.78 134.272 342.18C121.42 336.876 101.344 344.384 83.9441 345.632" stroke="#020064" stroke-width="4" stroke-linecap="round" stroke-linejoin="round"/>
<path d="M280.456 328.092C222.684 339.432 244.896 305.784 207.836 316.224C220.636 316.224 236.332 360.78 281.4 342.18C302.8 333.356 344.176 360 359.968 334.276C360.892 332.768 362 330.824 362 330.824C337.968 347.688 321.24 320.088 280.456 328.092Z" stroke="#020064" stroke-width="4" stroke-linecap="round" stroke-linejoin="round"/>
<path d="M76.656 326.424C87.416 319.788 92.22 309.032 119.292 314.824C121.412 315.235 123.596 315.16 125.683 314.606C127.77 314.052 129.704 313.032 131.34 311.624C132.994 310.246 134.328 308.522 135.246 306.574C136.164 304.626 136.645 302.501 136.656 300.348C136.666 298.264 136.263 296.199 135.473 294.271C134.682 292.342 133.518 290.59 132.048 289.112C130.578 287.635 128.832 286.462 126.907 285.662C124.983 284.862 122.92 284.449 120.836 284.448H113.084C111.964 284.448 110.852 284.413 109.748 284.344" stroke="#020064" stroke-width="4" stroke-linecap="round" stroke-linejoin="round"/>
<path d="M136.732 209.432V125.032C136.873 106.264 144.427 88.312 157.748 75.0904C171.07 61.8688 189.077 54.4492 207.846 54.4492C226.615 54.4492 244.622 61.8688 257.944 75.0904C271.265 88.312 278.819 106.264 278.96 125.032V225.432C278.96 228.538 279.572 231.612 280.76 234.482C281.948 237.351 283.69 239.958 285.886 242.154C288.082 244.35 290.689 246.092 293.558 247.28C296.427 248.468 299.502 249.08 302.608 249.08C306.994 249.075 311.199 247.33 314.3 244.228C317.402 241.127 319.147 236.922 319.152 232.536C319.146 230.492 318.728 228.469 317.922 226.59C317.117 224.711 315.941 223.014 314.464 221.6C301.024 208.772 306.564 185.476 311.472 167.54L317.928 143.2C336.116 143.2 336.436 174.904 334.752 181.052C334.028 183.686 334.031 186.467 334.762 189.099C335.492 191.731 336.922 194.116 338.9 196C343.83 200.726 347.756 206.398 350.442 212.676C353.128 218.955 354.519 225.711 354.532 232.54C354.512 246.305 349.035 259.5 339.302 269.234C329.568 278.967 316.373 284.444 302.608 284.464H294.856C292.772 284.465 290.709 284.878 288.785 285.678C286.86 286.478 285.114 287.651 283.644 289.128C282.174 290.606 281.01 292.358 280.219 294.287C279.429 296.215 279.026 298.28 279.036 300.364C279.047 302.518 279.528 304.642 280.446 306.59C281.364 308.538 282.698 310.262 284.352 311.64C285.988 313.048 287.922 314.068 290.009 314.622C292.096 315.176 294.28 315.251 296.4 314.84C336.556 306.236 327.72 334.064 362 330.84" stroke="#020064" stroke-width="4" stroke-linecap="round" stroke-linejoin="round"/>
<path d="M100.704 222.116C98.0392 224.934 96.55 228.662 96.54 232.54C96.546 236.856 98.2352 240.998 101.249 244.087C104.262 247.176 108.362 248.968 112.676 249.08" stroke="#020064" stroke-width="4" stroke-linecap="round" stroke-linejoin="round"/>
<path d="M88.4241 146.96C89.6533 145.745 91.1125 144.787 92.7161 144.142C94.3197 143.497 96.0357 143.178 97.7641 143.204L104.22 167.532C107.82 180.696 111.764 196.752 108.292 209.432" stroke="#020064" stroke-width="4" stroke-linecap="round" stroke-linejoin="round"/>
<path d="M207.848 126.836C215.799 126.836 222.244 120.391 222.244 112.44C222.244 104.489 215.799 98.0441 207.848 98.0441C199.897 98.0441 193.452 104.489 193.452 112.44C193.452 120.391 199.897 126.836 207.848 126.836Z" stroke="#020064" stroke-width="4" stroke-linecap="round" stroke-linejoin="round"/>
<path d="M207.848 192.28C214.663 192.426 221.3 190.102 226.535 185.736C231.77 181.37 235.248 175.258 236.328 168.528C236.383 168.124 236.339 167.714 236.2 167.331C236.06 166.948 235.83 166.605 235.528 166.332C235.213 166.05 234.838 165.842 234.432 165.724C234.025 165.605 233.598 165.579 233.18 165.648C216.408 168.332 199.316 168.332 182.544 165.648C182.127 165.579 181.7 165.605 181.294 165.724C180.888 165.842 180.515 166.05 180.2 166.332C179.898 166.606 179.668 166.948 179.528 167.331C179.389 167.714 179.345 168.124 179.4 168.528C180.479 175.252 183.953 181.36 189.181 185.725C194.409 190.09 201.039 192.418 207.848 192.28Z" stroke="#020064" stroke-width="4" stroke-linecap="round" stroke-linejoin="round"/>
<path d="M321.316 197.66C324.184 197.66 326.508 194.397 326.508 190.372C326.508 186.347 324.184 183.084 321.316 183.084C318.448 183.084 316.124 186.347 316.124 190.372C316.124 194.397 318.448 197.66 321.316 197.66Z" stroke="#020064" stroke-width="4" stroke-linecap="round" stroke-linejoin="round"/>
<path d="M336.947 230.303C339.702 229.508 341.03 225.728 339.913 221.861C338.796 217.994 335.658 215.504 332.903 216.3C330.148 217.095 328.82 220.875 329.937 224.742C331.054 228.609 334.192 231.099 336.947 230.303Z" stroke="#020064" stroke-width="4" stroke-linecap="round" stroke-linejoin="round"/>
<path d="M327.412 262.431C330.336 259.665 331.108 255.734 329.138 253.651C327.167 251.568 323.199 252.122 320.275 254.888C317.351 257.654 316.578 261.585 318.549 263.668C320.52 265.751 324.488 265.197 327.412 262.431Z" stroke="#020064" stroke-width="4" stroke-linecap="round" stroke-linejoin="round"/>
<path d="M38.0319 225.448C29.4687 226.382 21.552 230.446 15.8007 236.859C10.0493 243.272 6.86832 251.582 6.86792 260.196V288C6.86876 291.942 8.40956 295.727 11.1617 298.548C13.9139 301.37 17.6596 303.005 21.5999 303.104V332.704C19.8619 332.216 18.0155 332.28 16.3149 332.885C14.6142 333.49 13.1428 334.607 12.1032 336.082C11.0636 337.558 10.5069 339.32 10.5097 341.125C10.5124 342.93 11.0745 344.69 12.1186 346.162C13.1626 347.635 14.6374 348.748 16.3399 349.347C18.0424 349.947 19.8889 350.005 21.6254 349.512C23.3619 349.019 24.9031 348 26.0367 346.596C27.1703 345.191 27.8407 343.47 27.9559 341.668H28.0719C28.1687 343.154 28.6439 344.591 29.4527 345.842C30.2619 347.093 31.3775 348.116 32.6931 348.813C34.0091 349.511 35.4819 349.86 36.9711 349.828C38.4603 349.796 39.9163 349.382 41.2007 348.628C42.4851 347.874 43.5551 346.804 44.3091 345.519C45.0631 344.235 45.4755 342.778 45.5075 341.289C45.5395 339.8 45.1899 338.328 44.4919 337.012C43.7939 335.696 42.7707 334.581 41.5199 333.772V312.048C41.5199 310.146 42.2755 308.322 43.6207 306.977C44.9655 305.632 46.7899 304.876 48.6919 304.876C50.5939 304.876 52.4183 305.632 53.7631 306.977C55.1083 308.322 55.8639 310.146 55.8639 312.048V332.956C54.3779 333.527 53.0759 334.493 52.0987 335.75C51.1219 337.006 50.5067 338.506 50.3203 340.087C50.1335 341.668 50.3823 343.27 51.0399 344.72C51.6975 346.17 52.7391 347.412 54.0515 348.313C55.3639 349.214 56.8975 349.74 58.4867 349.832C60.0759 349.925 61.6603 349.582 63.0687 348.84C64.4771 348.098 65.6559 346.985 66.4775 345.622C67.2995 344.258 67.7331 342.696 67.7319 341.104C67.7283 342.827 68.2335 344.512 69.1839 345.949C70.1343 347.385 71.4879 348.509 73.0747 349.18C74.6615 349.85 76.4107 350.038 78.1035 349.718C79.7959 349.398 81.3567 348.586 82.5895 347.383C83.8223 346.18 84.6727 344.64 85.0335 342.955C85.3947 341.271 85.2503 339.517 84.6187 337.914C83.9871 336.312 82.8963 334.932 81.4835 333.946C80.0703 332.961 78.3979 332.415 76.6759 332.376V260.192C76.6339 263.55 77.2587 266.883 78.5147 269.997C79.7703 273.112 81.6319 275.946 83.9919 278.336C86.3515 280.725 89.1619 282.622 92.2603 283.917C95.3591 285.212 98.6835 285.878 102.042 285.878C105.4 285.878 108.725 285.212 111.824 283.917C114.922 282.622 117.732 280.725 120.092 278.336C122.452 275.946 124.314 273.112 125.569 269.997C126.825 266.883 127.45 263.55 127.408 260.192V240.152C130.323 235.88 132.909 231.392 135.144 226.728C135.463 226.778 135.785 226.81 136.108 226.824C137.709 226.831 139.282 226.395 140.651 225.566C142.02 224.736 143.134 223.544 143.87 222.122C144.605 220.699 144.934 219.101 144.818 217.504C144.704 215.907 144.15 214.372 143.218 213.07C142.287 211.767 141.014 210.747 139.54 210.122C138.065 209.497 136.447 209.291 134.863 209.527C133.279 209.763 131.791 210.432 130.564 211.46C129.336 212.488 128.415 213.834 127.904 215.352C125.66 220.796 119.284 222.476 116.56 215.04C115.995 213.561 115.036 212.265 113.788 211.292C112.539 210.318 111.048 209.705 109.476 209.517C107.904 209.33 106.311 209.576 104.869 210.228C103.426 210.88 102.19 211.915 101.293 213.219C100.396 214.524 99.8723 216.048 99.7791 217.629C99.6859 219.209 100.027 220.785 100.764 222.186C101.502 223.587 102.608 224.759 103.964 225.577C105.32 226.394 106.873 226.826 108.456 226.824L112.696 240.152V260.192C112.642 262.982 111.496 265.639 109.504 267.593C107.512 269.547 104.832 270.642 102.042 270.642C99.2515 270.642 96.5723 269.547 94.5803 267.593C92.5883 265.639 91.4419 262.982 91.3879 260.192C91.3871 251.578 88.2055 243.267 82.4531 236.855C76.7011 230.443 68.7835 226.381 60.2199 225.448" stroke="#020064" stroke-width="4" stroke-linecap="round" stroke-linejoin="round"/>
<path d="M56.736 209.952C55.7356 210.953 54.548 211.746 53.2408 212.288C51.934 212.83 50.5328 213.108 49.118 213.108C47.7032 213.108 46.302 212.83 44.9952 212.288C43.688 211.746 42.5004 210.953 41.5 209.952" stroke="#020064" stroke-width="4" stroke-linecap="round" stroke-linejoin="round"/>
<path d="M21.5801 314.808V253.672" stroke="#020064" stroke-width="4" stroke-linecap="round" stroke-linejoin="round"/>
<path d="M96.236 175.072C96.236 199.4 56.904 231.072 49.116 231.072C41.328 231.072 2 199.4 2 175.072C2 150.744 23.096 134.124 49.116 134.124C75.136 134.124 96.236 150.748 96.236 175.072Z" stroke="#020064" stroke-width="4" stroke-linecap="round" stroke-linejoin="round"/>
<path d="M79.0473 184.477C82.7461 177.411 81.2037 169.307 75.6021 166.374C70.0005 163.442 62.4613 166.792 58.7625 173.858C55.0641 180.923 56.6065 189.028 62.2077 191.96C67.8093 194.893 75.3485 191.542 79.0473 184.477Z" stroke="#020064" stroke-width="4" stroke-linecap="round" stroke-linejoin="round"/>
<path d="M36.0232 191.96C41.6244 189.028 43.1668 180.923 39.468 173.858C35.7696 166.792 28.23 163.442 22.6288 166.374C17.0273 169.306 15.4849 177.411 19.1836 184.477C22.8824 191.542 30.4216 194.892 36.0232 191.96Z" stroke="#020064" stroke-width="4" stroke-linecap="round" stroke-linejoin="round"/>
<path d="M46.7999 48.9401C46.0087 48.9401 45.2355 49.1745 44.5775 49.6141C43.9199 50.0537 43.4071 50.6785 43.1043 51.4093C42.8015 52.1401 42.7223 52.9445 42.8767 53.7205C43.0311 54.4965 43.4119 55.2089 43.9715 55.7685C44.5307 56.3277 45.2435 56.7089 46.0195 56.8633C46.7955 57.0177 47.5999 56.9385 48.3307 56.6357C49.0615 56.3329 49.6863 55.8201 50.1259 55.1625C50.5651 54.5045 50.7999 53.7313 50.7999 52.9401C50.7999 51.8793 50.3783 50.8617 49.6283 50.1117C48.8783 49.3613 47.8607 48.9401 46.7999 48.9401Z" stroke="#020064" stroke-width="4"/>
<path d="M90.4 48.9401C89.6088 48.9401 88.8356 49.1745 88.1776 49.6141C87.52 50.0537 87.0072 50.6785 86.7044 51.4093C86.4016 52.1401 86.3224 52.9445 86.4768 53.7205C86.6312 54.4965 87.012 55.2089 87.5716 55.7685C88.1312 56.3277 88.8436 56.7089 89.6196 56.8633C90.3956 57.0177 91.2 56.9385 91.9308 56.6357C92.6616 56.3329 93.2864 55.8201 93.726 55.1625C94.1656 54.5045 94.4 53.7313 94.4 52.9401C94.4 51.8793 93.9784 50.8617 93.2284 50.1117C92.4784 49.3613 91.4608 48.9401 90.4 48.9401Z" stroke="#020064" stroke-width="4"/>
<path d="M127.896 61.444C127.896 66.184 114.784 69.14 113.612 73.512C112.412 78.036 122.248 87.144 119.956 91.112C117.664 95.08 104.804 91.136 101.556 94.396C98.3081 97.656 102.284 110.488 98.2681 112.796C94.2521 115.104 85.2001 105.24 80.6681 106.452C76.2961 107.62 73.3401 120.732 68.6001 120.732C63.8601 120.732 60.9041 107.62 56.5321 106.452C52.0081 105.252 42.9001 115.084 38.9321 112.792C34.9641 110.5 38.9081 97.64 35.6481 94.392C32.3881 91.144 19.5601 95.12 17.2481 91.104C14.9361 87.088 24.8001 78.036 23.5921 73.504C22.4201 69.132 9.30811 66.176 9.30811 61.436C9.30811 56.696 22.4001 53.748 23.6001 49.376C24.8001 44.852 14.9641 35.744 17.2561 31.776C19.5481 27.808 32.4081 31.752 35.6561 28.492C38.9041 25.232 34.9281 12.404 38.9441 10.092C42.9601 7.77998 52.0121 17.644 56.5441 16.436C60.9161 15.264 63.8721 2.15198 68.6121 2.15198C73.3521 2.15198 76.3081 15.264 80.6801 16.436C85.2041 17.636 94.3121 7.79998 98.2801 10.092C102.248 12.384 98.3041 25.244 101.564 28.492C104.824 31.74 117.652 27.764 119.964 31.78C122.276 35.796 112.412 44.848 113.624 49.38C114.8 53.748 127.896 56.704 127.896 61.444Z" stroke="#020064" stroke-width="4" stroke-linecap="round" stroke-linejoin="round"/>
<path d="M68.6 82.604C71.9392 82.676 75.1916 81.5376 77.7568 79.3992C80.322 77.2604 82.0264 74.2656 82.556 70.968C82.5816 70.7704 82.5588 70.5692 82.4888 70.3824C82.4192 70.1956 82.3048 70.0284 82.156 69.896C82.002 69.7572 81.8192 69.6548 81.6204 69.596C81.422 69.5372 81.2128 69.5232 81.008 69.556C72.7936 70.8712 64.4224 70.8712 56.208 69.556C56.0036 69.5232 55.794 69.5372 55.5956 69.596C55.3968 69.6548 55.214 69.7572 55.06 69.896C54.9092 70.0272 54.794 70.194 54.724 70.3812C54.654 70.5684 54.632 70.77 54.66 70.968C55.1884 74.2632 56.8904 77.256 59.4524 79.3948C62.0144 81.5332 65.2636 82.6732 68.6 82.604Z" stroke="#020064" stroke-width="4" stroke-linecap="round" stroke-linejoin="round"/>
<path d="M207.848 147.148C227.017 147.148 242.556 131.609 242.556 112.44C242.556 93.2713 227.017 77.7321 207.848 77.7321C188.679 77.7321 173.14 93.2713 173.14 112.44C173.14 131.609 188.679 147.148 207.848 147.148Z" stroke="#020064" stroke-width="4" stroke-linecap="round" stroke-linejoin="round"/>
</svg>
