<svg width="364" height="328" viewBox="0 0 364 328" fill="none" xmlns="http://www.w3.org/2000/svg">
<path d="M116.956 318.684H102.364V228.864H116.956C118.38 228.864 119.745 229.43 120.752 230.436C121.759 231.443 122.324 232.808 122.324 234.232V313.316C122.324 314.74 121.759 316.105 120.752 317.112C119.745 318.118 118.38 318.684 116.956 318.684Z" stroke="#020064" stroke-width="4" stroke-linecap="round" stroke-linejoin="round"/>
<path d="M185.532 218.888H198.84" stroke="#020064" stroke-width="4" stroke-linecap="round" stroke-linejoin="round"/>
<path d="M247.076 298.728H240.424" stroke="#020064" stroke-width="4" stroke-linecap="round" stroke-linejoin="round"/>
<path d="M253.728 272.112H247.076" stroke="#020064" stroke-width="4" stroke-linecap="round" stroke-linejoin="round"/>
<path d="M260.384 245.5H253.728" stroke="#020064" stroke-width="4" stroke-linecap="round" stroke-linejoin="round"/>
<path d="M198.84 218.888C201.324 194.032 204.612 140.708 183.868 140.708C179.898 140.709 176.091 142.287 173.284 145.095C170.477 147.902 168.9 151.71 168.9 155.68V160.668C168.9 197.264 153.028 235.52 122.328 235.52L122.296 312.032H126.224C145.424 312.032 154.492 325.34 188.86 325.34H247.076C248.843 325.371 250.598 325.049 252.239 324.394C253.88 323.739 255.374 322.764 256.635 321.526C257.895 320.287 258.896 318.81 259.579 317.18C260.263 315.55 260.615 313.801 260.615 312.034C260.615 310.267 260.263 308.518 259.579 306.888C258.896 305.258 257.895 303.781 256.635 302.543C255.374 301.304 253.88 300.329 252.239 299.674C250.598 299.019 248.843 298.697 247.076 298.728H253.728C257.257 298.728 260.642 297.326 263.138 294.83C265.634 292.334 267.036 288.95 267.036 285.42C267.036 281.89 265.634 278.506 263.138 276.01C260.642 273.514 257.257 272.112 253.728 272.112H260.4C263.889 272.052 267.214 270.623 269.66 268.134C272.106 265.646 273.477 262.296 273.477 258.806C273.477 255.316 272.106 251.966 269.66 249.478C267.214 246.989 263.889 245.56 260.4 245.5H267.052C268.819 245.531 270.574 245.209 272.215 244.554C273.856 243.899 275.35 242.924 276.611 241.686C277.871 240.447 278.872 238.97 279.556 237.34C280.239 235.71 280.59 233.961 280.59 232.194C280.59 230.427 280.239 228.678 279.556 227.048C278.872 225.418 277.871 223.941 276.611 222.703C275.35 221.464 273.856 220.489 272.215 219.834C270.574 219.179 268.819 218.857 267.052 218.888H198.84Z" stroke="#020064" stroke-width="4" stroke-linecap="round" stroke-linejoin="round"/>
<path d="M62.4484 222.212H95.7124C97.4776 222.212 99.1704 222.913 100.419 224.162C101.667 225.41 102.368 227.103 102.368 228.868V318.688C102.367 320.452 101.666 322.144 100.417 323.392C99.1692 324.639 97.4768 325.34 95.7124 325.34H62.4484" stroke="#020064" stroke-width="4" stroke-linecap="round" stroke-linejoin="round"/>
<path d="M176.08 5.79998C176.544 4.85758 177.262 4.06358 178.154 3.50866C179.046 2.95362 180.075 2.65942 181.126 2.65942C182.176 2.65942 183.206 2.95362 184.098 3.50866C184.989 4.06358 185.708 4.85758 186.172 5.79998L196.352 26.432C196.756 27.2504 197.353 27.958 198.092 28.494C198.83 29.0296 199.688 29.378 200.592 29.508L223.364 32.82C224.403 32.9708 225.38 33.4096 226.183 34.0864C226.986 34.7632 227.583 35.6512 227.908 36.65C228.233 37.6488 228.271 38.7188 228.02 39.7384C227.768 40.758 227.236 41.6868 226.484 42.42L210 58.48C209.35 59.12 208.866 59.9072 208.587 60.7752C208.308 61.6432 208.244 62.566 208.4 63.464L212.288 86.148C212.466 87.1832 212.352 88.2476 211.956 89.2208C211.561 90.194 210.901 91.0368 210.052 91.6544C209.202 92.272 208.196 92.6388 207.148 92.714C206.101 92.7892 205.053 92.5696 204.124 92.08L183.756 81.372C182.948 80.9464 182.049 80.724 181.136 80.724C180.223 80.724 179.324 80.9464 178.516 81.372L158.136 92.08C157.206 92.5696 156.159 92.7892 155.111 92.714C154.063 92.6388 153.058 92.272 152.208 91.6544C151.358 91.0368 150.698 90.194 150.303 89.2208C149.908 88.2476 149.793 87.1832 149.972 86.148L153.86 63.464C154.015 62.564 153.948 61.64 153.666 60.772C153.384 59.9036 152.894 59.1168 152.24 58.48L135.764 42.42C135.012 41.6872 134.48 40.7588 134.228 39.7392C133.976 38.72 134.014 37.6504 134.338 36.6516C134.662 35.6528 135.26 34.7648 136.062 34.0876C136.865 33.4104 137.841 32.9716 138.88 32.82L161.652 29.508C162.556 29.3796 163.415 29.0324 164.154 28.4964C164.893 27.9604 165.489 27.2516 165.892 26.432L176.08 5.79998Z" stroke="#020064" stroke-width="4" stroke-linecap="round" stroke-linejoin="round"/>
<path d="M61.6 54.688C61.5212 53.8236 61.6856 52.954 62.0748 52.178C62.464 51.4016 63.0624 50.75 63.8028 50.296C64.5428 49.842 65.3952 49.6044 66.2632 49.6092C67.1316 49.614 67.9812 49.8616 68.716 50.324L84.8 60.464C85.438 60.8664 86.1644 61.1072 86.9164 61.1656C87.6684 61.2244 88.4232 61.0988 89.116 60.8L106.596 53.292C107.394 52.9488 108.271 52.836 109.13 52.9656C109.988 53.0956 110.793 53.4628 111.454 54.0264C112.114 54.59 112.604 55.3272 112.867 56.1544C113.131 56.982 113.157 57.8664 112.944 58.708L108.272 77.148C108.088 77.8796 108.084 78.6448 108.26 79.3784C108.436 80.112 108.788 80.792 109.284 81.36L121.832 95.664C122.404 96.3172 122.782 97.118 122.923 97.9748C123.064 98.832 122.962 99.7112 122.63 100.514C122.296 101.316 121.746 102.008 121.039 102.514C120.332 103.019 119.499 103.316 118.632 103.372L99.652 104.632C98.8992 104.682 98.1696 104.914 97.5264 105.308C96.8832 105.703 96.3456 106.248 95.96 106.896L86.232 123.244C85.7888 123.991 85.1456 124.599 84.3748 124.999C83.604 125.398 82.7368 125.574 81.8712 125.507C81.0052 125.439 80.176 125.13 79.4768 124.615C78.778 124.1 78.2372 123.399 77.916 122.592L70.852 104.928C70.5704 104.23 70.1232 103.61 69.5492 103.122C68.9752 102.634 68.2912 102.293 67.556 102.128L49.02 97.92C48.1736 97.7284 47.3976 97.3032 46.78 96.6936C46.1624 96.084 45.7276 95.3132 45.5252 94.4696C45.3224 93.6256 45.36 92.7416 45.6332 91.918C45.9068 91.0944 46.4048 90.3636 47.072 89.808L61.688 77.632C62.268 77.1496 62.7216 76.5336 63.01 75.8368C63.2988 75.14 63.4132 74.3832 63.344 73.632L61.6 54.688Z" stroke="#020064" stroke-width="4" stroke-linecap="round" stroke-linejoin="round"/>
<path d="M2.63586 148.488C2.25586 147.939 2.03734 147.294 2.00514 146.628C1.9729 145.96 2.12822 145.298 2.45354 144.715C2.77882 144.132 3.26102 143.652 3.84542 143.328C4.42986 143.006 5.0931 142.853 5.75986 142.888L20.3319 143.632C20.9103 143.662 21.4873 143.551 22.0132 143.308C22.5388 143.064 22.9968 142.696 23.348 142.236L32.228 130.636C32.6328 130.108 33.1772 129.704 33.8 129.468C34.4224 129.234 35.0984 129.178 35.7512 129.306C36.404 129.436 37.0076 129.744 37.494 130.198C37.9804 130.652 38.3304 131.234 38.504 131.876L42.304 145.972C42.4568 146.529 42.7416 147.042 43.1344 147.466C43.5268 147.89 44.016 148.213 44.56 148.408L58.324 153.268C58.9524 153.489 59.506 153.882 59.9224 154.402C60.3392 154.922 60.602 155.548 60.6808 156.21C60.76 156.871 60.6524 157.541 60.37 158.145C60.088 158.748 59.6424 159.26 59.084 159.624L46.856 167.6C46.374 167.918 45.9768 168.347 45.698 168.852C45.4192 169.358 45.2676 169.923 45.256 170.5L44.884 185.092C44.8672 185.758 44.6648 186.405 44.2996 186.962C43.934 187.519 43.42 187.962 42.8156 188.242C42.2112 188.521 41.5408 188.626 40.88 188.545C40.2188 188.463 39.594 188.198 39.076 187.78L27.716 178.608C27.2644 178.246 26.732 177.999 26.1648 177.887C25.5972 177.775 25.0112 177.802 24.456 177.964L10.4559 182.12C9.81854 182.31 9.14062 182.319 8.49866 182.145C7.85666 181.971 7.27618 181.62 6.82274 181.134C6.36926 180.647 6.06094 180.043 5.9325 179.39C5.80406 178.738 5.86067 178.062 6.09587 177.44L11.2959 163.808C11.5031 163.267 11.5749 162.683 11.5052 162.108C11.4355 161.533 11.2263 160.984 10.8959 160.508L2.63586 148.488Z" stroke="#020064" stroke-width="4" stroke-linecap="round" stroke-linejoin="round"/>
<path d="M302.4 54.688C302.479 53.8236 302.314 52.954 301.925 52.178C301.536 51.4016 300.938 50.75 300.198 50.296C299.457 49.842 298.605 49.6044 297.737 49.6092C296.868 49.614 296.019 49.8616 295.284 50.324L279.2 60.464C278.562 60.8664 277.836 61.1072 277.084 61.1656C276.332 61.2244 275.577 61.0988 274.884 60.8L257.404 53.292C256.606 52.9488 255.729 52.836 254.87 52.9656C254.012 53.0956 253.207 53.4628 252.546 54.0264C251.886 54.59 251.396 55.3272 251.133 56.1544C250.869 56.982 250.843 57.8664 251.056 58.708L255.728 77.148C255.912 77.8796 255.916 78.6448 255.74 79.3784C255.564 80.112 255.212 80.792 254.716 81.36L242.168 95.664C241.596 96.3172 241.218 97.118 241.077 97.9748C240.936 98.832 241.038 99.7112 241.371 100.514C241.704 101.316 242.255 102.008 242.961 102.514C243.668 103.019 244.502 103.316 245.368 103.372L264.348 104.632C265.101 104.682 265.83 104.914 266.474 105.308C267.117 105.703 267.654 106.248 268.04 106.896L277.768 123.244C278.211 123.991 278.854 124.599 279.625 124.999C280.396 125.398 281.263 125.574 282.129 125.507C282.995 125.439 283.824 125.13 284.523 124.615C285.222 124.1 285.763 123.399 286.084 122.592L293.148 104.928C293.43 104.23 293.877 103.61 294.451 103.122C295.025 102.634 295.709 102.293 296.444 102.128L315 97.932C315.846 97.7404 316.622 97.3152 317.24 96.7056C317.858 96.096 318.292 95.3256 318.495 94.4816C318.698 93.6376 318.66 92.7536 318.387 91.93C318.114 91.1064 317.615 90.3756 316.948 89.82L302.332 77.644C301.752 77.1616 301.298 76.5456 301.01 75.8488C300.722 75.152 300.607 74.3952 300.676 73.644L302.4 54.688Z" stroke="#020064" stroke-width="4" stroke-linecap="round" stroke-linejoin="round"/>
<path d="M361.364 148.488C361.744 147.939 361.963 147.294 361.995 146.628C362.027 145.96 361.872 145.298 361.546 144.715C361.221 144.132 360.739 143.652 360.155 143.328C359.57 143.006 358.907 142.853 358.24 142.888L343.668 143.632C343.09 143.662 342.513 143.551 341.987 143.308C341.462 143.064 341.003 142.696 340.652 142.236L331.772 130.636C331.367 130.108 330.823 129.704 330.2 129.468C329.578 129.234 328.902 129.178 328.249 129.306C327.596 129.436 326.992 129.744 326.506 130.198C326.02 130.652 325.67 131.234 325.496 131.876L321.696 145.972C321.543 146.529 321.258 147.042 320.866 147.466C320.473 147.89 319.984 148.213 319.44 148.408L305.676 153.268C305.048 153.489 304.494 153.882 304.078 154.402C303.661 154.922 303.398 155.548 303.319 156.21C303.24 156.871 303.348 157.541 303.63 158.145C303.912 158.748 304.358 159.26 304.916 159.624L317.144 167.6C317.63 167.915 318.031 168.344 318.313 168.849C318.596 169.355 318.75 169.921 318.764 170.5L319.136 185.092C319.153 185.758 319.355 186.405 319.721 186.962C320.086 187.519 320.6 187.962 321.204 188.242C321.809 188.521 322.479 188.626 323.14 188.545C323.801 188.463 324.426 188.198 324.944 187.78L336.304 178.608C336.756 178.246 337.288 177.999 337.856 177.887C338.423 177.775 339.009 177.802 339.564 177.964L353.564 182.12C354.202 182.31 354.881 182.317 355.524 182.14C356.166 181.964 356.746 181.612 357.198 181.124C357.65 180.635 357.957 180.03 358.084 179.376C358.21 178.722 358.15 178.046 357.912 177.424L352.712 163.792C352.505 163.251 352.433 162.667 352.503 162.092C352.572 161.517 352.782 160.968 353.112 160.492L361.364 148.488Z" stroke="#020064" stroke-width="4" stroke-linecap="round" stroke-linejoin="round"/>
</svg>
