<svg width="364" height="272" viewBox="0 0 364 272" fill="none" xmlns="http://www.w3.org/2000/svg">
<path d="M183.952 215.248V257.868C183.952 259.436 183.644 260.99 183.043 262.439C182.442 263.888 181.561 265.204 180.451 266.312C179.341 267.42 178.023 268.298 176.573 268.896C175.122 269.494 173.568 269.8 172 269.796H13.932C12.3651 269.797 10.8134 269.489 9.36552 268.89C7.91764 268.291 6.602 267.413 5.49388 266.305C4.38572 265.197 3.50676 263.882 2.90728 262.434C2.30776 260.986 1.99948 259.435 2 257.868V42.168C2.00952 39.0068 3.2698 35.9776 5.50552 33.7428C7.74128 31.5076 10.7707 30.2484 13.932 30.24H46.732V52.904C46.7404 54.4836 47.3712 55.996 48.488 57.1132C49.6044 58.2308 51.1164 58.8624 52.696 58.872H133.232C134.812 58.8636 136.325 58.232 137.443 57.1148C138.56 55.9972 139.192 54.4844 139.2 52.904V30.24H172C175.161 30.2484 178.191 31.5076 180.426 33.7428C182.662 35.9776 183.922 39.0068 183.932 42.168V77.54" stroke="#020064" stroke-width="4" stroke-linecap="round" stroke-linejoin="round"/>
<path d="M183.936 119.656V129.32L175.228 125.32C178.004 123.244 180.913 121.352 183.936 119.656Z" stroke="#020064" stroke-width="4" stroke-linecap="round" stroke-linejoin="round"/>
<path d="M118.32 46.9399H67.616" stroke="#020064" stroke-width="4" stroke-linecap="round" stroke-linejoin="round"/>
<path d="M166.04 149.004C164.84 148.108 163.596 147.156 162.284 146.204C161.628 145.728 160.972 145.248 160.316 144.712C159.719 144.432 159.141 144.114 158.584 143.76L157.868 143.22C157.41 142.89 156.99 142.511 156.616 142.088C153.632 145.248 150.652 148.652 147.728 152.288C145.73 154.717 142.854 156.259 139.726 156.581C136.598 156.902 133.468 155.977 131.018 154.006C128.568 152.035 126.993 149.177 126.637 146.052C126.281 142.927 127.172 139.788 129.116 137.316C139.502 123.957 151.969 112.356 166.04 102.956" stroke="#020064" stroke-width="4" stroke-linecap="round" stroke-linejoin="round"/>
<path d="M139.2 46.9399H160.08C161.659 46.9491 163.17 47.5807 164.287 48.6971C165.403 49.8135 166.034 51.3251 166.044 52.9039V85.5999" stroke="#020064" stroke-width="4" stroke-linecap="round" stroke-linejoin="round"/>
<path d="M166.04 202.092V234.84C166.03 236.418 165.398 237.928 164.281 239.044C163.165 240.16 161.654 240.79 160.076 240.8H25.86C24.282 240.79 22.7708 240.16 21.6546 239.044C20.5383 237.928 19.9065 236.418 19.896 234.84V52.9039C19.9054 51.3251 20.5368 49.8135 21.6532 48.6971C22.7696 47.5807 24.2812 46.9491 25.86 46.9399H46.74" stroke="#020064" stroke-width="4" stroke-linecap="round" stroke-linejoin="round"/>
<path d="M155.2 172.4V172.46L157.288 175.38C158.216 176.666 159.616 177.532 161.181 177.79C162.746 178.047 164.349 177.674 165.64 176.752L166.04 176.456" stroke="#020064" stroke-width="4" stroke-linecap="round" stroke-linejoin="round"/>
<path d="M40.7321 94.66H131.86" stroke="#020064" stroke-width="4" stroke-linecap="round" stroke-linejoin="round"/>
<path d="M122.972 121.504H40.712" stroke="#020064" stroke-width="4" stroke-linecap="round" stroke-linejoin="round"/>
<path d="M40.7321 151.332H104.244" stroke="#020064" stroke-width="4" stroke-linecap="round" stroke-linejoin="round"/>
<path d="M46.74 40.1399V26.0639C46.7484 24.4843 47.3792 22.9719 48.496 21.8547C49.6124 20.7371 51.1244 20.1055 52.704 20.0959H79.844" stroke="#020064" stroke-width="4" stroke-linecap="round" stroke-linejoin="round"/>
<path d="M109.072 20.0959H133.232C134.812 20.1043 136.325 20.7359 137.443 21.8531C138.56 22.9707 139.192 24.4835 139.2 26.0639V40.1399" stroke="#020064" stroke-width="4" stroke-linecap="round" stroke-linejoin="round"/>
<path d="M94.46 32.028C102.696 32.028 109.372 25.3516 109.372 17.116C109.372 8.88037 102.696 2.20398 94.46 2.20398C86.2244 2.20398 79.548 8.88037 79.548 17.116C79.548 25.3516 86.2244 32.028 94.46 32.028Z" stroke="#020064" stroke-width="4" stroke-linecap="round" stroke-linejoin="round"/>
<path d="M49.84 182.348C48.2996 183.888 47.1632 185.784 46.5308 187.868C45.8984 189.952 45.7896 192.16 46.214 194.296C46.6388 196.432 47.5836 198.431 48.9652 200.114C50.3468 201.798 52.122 203.115 54.134 203.949C56.146 204.783 58.3328 205.108 60.5004 204.894C62.6676 204.681 64.7492 203.937 66.5604 202.727C68.3716 201.517 69.8564 199.88 70.8832 197.959C71.91 196.038 72.4476 193.894 72.448 191.716V194.34C72.502 197.12 73.6444 199.769 75.6296 201.716C77.6152 203.663 80.2852 204.754 83.066 204.754C85.8468 204.754 88.5168 203.663 90.5024 201.716C92.4876 199.769 93.63 197.12 93.684 194.34C93.6864 196.515 94.352 198.637 95.592 200.424" stroke="#020064" stroke-width="4" stroke-linecap="round" stroke-linejoin="round"/>
<path d="M186.024 163.856C195.924 170.956 203.144 175.856 208.752 179.368L208.096 192C208.01 193.563 207.617 195.094 206.939 196.505C206.261 197.916 205.312 199.18 204.146 200.224C202.98 201.268 201.62 202.072 200.143 202.591C198.666 203.11 197.101 203.332 195.538 203.246C193.975 203.16 192.444 202.767 191.033 202.089C189.622 201.411 188.358 200.462 187.314 199.296C186.27 198.13 185.466 196.77 184.947 195.292C184.428 193.816 184.206 192.251 184.292 190.688L185.724 164.5V163.68" stroke="#020064" stroke-width="4" stroke-linecap="round" stroke-linejoin="round"/>
<path d="M186.024 163.856L185.724 164.512L183.936 167.972L177.316 180.856C176.249 182.888 174.616 184.569 172.616 185.694C170.615 186.82 168.331 187.343 166.04 187.2C164.326 187.124 162.652 186.654 161.148 185.828C158.76 184.576 156.883 182.53 155.84 180.044" stroke="#020064" stroke-width="4" stroke-linecap="round" stroke-linejoin="round"/>
<path d="M184.892 163.02C184.592 162.784 184.236 162.544 183.936 162.308C178.864 158.608 173.2 154.372 166.636 149.42" stroke="#020064" stroke-width="4" stroke-linecap="round" stroke-linejoin="round"/>
<path d="M166.04 176.444L165.64 176.74C164.349 177.662 162.746 178.035 161.181 177.778C159.616 177.52 158.216 176.654 157.288 175.368L155.2 172.448" stroke="#020064" stroke-width="4" stroke-linecap="round" stroke-linejoin="round"/>
<path d="M362 187.176L341.916 167.092C340.798 165.974 339.281 165.346 337.7 165.346C336.119 165.346 334.602 165.974 333.484 167.092L276.54 224.036C275.422 225.155 274.794 226.672 274.794 228.254C274.794 229.836 275.422 231.353 276.54 232.472L296.62 252.552" stroke="#020064" stroke-width="4" stroke-linecap="round" stroke-linejoin="round"/>
<path d="M333.48 167.08L276.516 224.044L268.116 215.576C267.421 214.886 266.91 214.032 266.631 213.094C266.352 212.156 266.312 211.162 266.516 210.204C266.588 209.84 266.689 209.481 266.816 209.132C267.117 208.395 267.564 207.726 268.128 207.164L316.6 158.668C316.784 158.474 316.983 158.294 317.196 158.132C318.352 157.254 319.786 156.824 321.234 156.922C322.683 157.021 324.046 157.641 325.072 158.668L333.48 167.08Z" stroke="#020064" stroke-width="4" stroke-linecap="round" stroke-linejoin="round"/>
<path d="M186.044 163.856C186.016 163.802 185.972 163.756 185.919 163.725C185.866 163.694 185.806 163.678 185.744 163.68C185.494 163.428 185.214 163.206 184.912 163.02L186.044 163.856ZM185.248 129.916L183.936 129.32L185.248 129.916ZM202.844 137.908L185.244 129.908L202.844 137.96C203.929 138.483 205.045 138.941 206.184 139.332C205.112 138.924 204 138.448 202.844 137.908Z" stroke="#020064" stroke-width="4" stroke-linecap="round" stroke-linejoin="round"/>
<path d="M242.752 88.9959L212.688 110.4C202.512 111.186 192.663 114.354 183.936 119.648C180.913 121.346 178.004 123.239 175.228 125.316L170.216 123.048C168.911 122.416 167.489 122.059 166.04 122C163.645 121.837 161.258 122.402 159.189 123.62C157.121 124.838 155.47 126.652 154.45 128.826C153.432 130.998 153.093 133.429 153.48 135.798C153.866 138.166 154.959 140.363 156.616 142.1C153.632 145.26 150.652 148.664 147.728 152.3C145.73 154.729 142.854 156.271 139.726 156.593C136.598 156.914 133.468 155.989 131.018 154.018C128.568 152.047 126.993 149.189 126.637 146.064C126.281 142.939 127.172 139.8 129.116 137.328C139.503 123.97 151.97 112.368 166.04 102.968C171.697 99.2555 177.688 96.0807 183.936 93.4839C198.621 87.2463 214.678 84.9427 230.524 86.7999C234.644 87.2591 238.73 87.9927 242.752 88.9959Z" stroke="#020064" stroke-width="4" stroke-linecap="round" stroke-linejoin="round"/>
<path d="M186.024 163.856C195.924 170.956 203.144 175.856 208.752 179.368C214.761 183.281 221.182 186.52 227.9 189.028C245.556 195.948 253.368 199.232 266.372 210.98C266.383 210.719 266.423 210.46 266.492 210.208C266.564 209.842 266.664 209.482 266.792 209.132C267.093 208.395 267.54 207.726 268.104 207.164L316.6 158.668C316.785 158.474 316.984 158.296 317.196 158.132C302.044 145.008 297.572 118.164 271.684 101.404L238.04 125.264C238.009 127.535 237.326 129.75 236.072 131.644C233.716 134.736 230.645 137.209 227.122 138.851C223.6 140.494 219.73 141.256 215.848 141.072C214.852 141.07 213.857 141.01 212.868 140.892C210.589 140.624 208.348 140.104 206.184 139.34C205.045 138.949 203.929 138.491 202.844 137.968L185.244 129.916" stroke="#020064" stroke-width="4" stroke-linecap="round" stroke-linejoin="round"/>
<path d="M184.892 163.02C184.592 162.784 184.236 162.544 183.936 162.308C178.864 158.608 173.2 154.372 166.636 149.42C166.413 149.327 166.21 149.191 166.04 149.02C164.84 148.124 163.596 147.172 162.284 146.22C161.628 145.744 160.972 145.264 160.316 144.728C159.719 144.448 159.141 144.13 158.584 143.776L157.868 143.236C157.41 142.906 156.99 142.527 156.616 142.104C154.96 140.367 153.868 138.17 153.481 135.801C153.095 133.432 153.434 131.002 154.452 128.829C155.471 126.656 157.122 124.841 159.19 123.623C161.258 122.404 163.646 121.838 166.04 122C167.491 122.068 168.913 122.434 170.216 123.076L175.228 125.344L183.936 129.344" stroke="#020064" stroke-width="4" stroke-linecap="round" stroke-linejoin="round"/>
<path d="M333.48 167.08L276.516 224.044L268.116 215.576C267.421 214.886 266.91 214.032 266.631 213.094C266.352 212.156 266.312 211.162 266.516 210.204C266.588 209.84 266.689 209.481 266.816 209.132C267.117 208.395 267.564 207.726 268.128 207.164L316.6 158.668C316.784 158.474 316.983 158.294 317.196 158.132C318.352 157.254 319.786 156.824 321.234 156.922C322.683 157.021 324.046 157.641 325.072 158.668L333.48 167.08Z" stroke="#020064" stroke-width="4" stroke-linecap="round" stroke-linejoin="round"/>
<path d="M278.84 89.412C278.839 91.552 278.324 93.6608 277.338 95.5604C276.352 97.46 274.925 99.0948 273.176 100.328L271.684 101.404L238.04 125.264L225.752 134.032L210.24 112.14L212.688 110.408L242.752 88.996L257.604 78.436C259.621 77.024 261.986 76.1904 264.442 76.026C266.899 75.8616 269.354 76.372 271.541 77.5028C273.728 78.6332 275.564 80.3404 276.851 82.4396C278.138 84.5388 278.826 86.95 278.84 89.412Z" stroke="#020064" stroke-width="4" stroke-linecap="round" stroke-linejoin="round"/>
<path d="M212.328 99.668L246.368 75.484C247.317 74.7792 248.399 74.2736 249.548 73.9976C250.698 73.7216 251.891 73.6812 253.056 73.8784C254.222 74.076 255.336 74.5068 256.33 75.1456C257.325 75.7848 258.18 76.618 258.844 77.596" stroke="#020064" stroke-width="4" stroke-linecap="round" stroke-linejoin="round"/>
<path d="M140.988 183.304L136.096 186.764C136.336 193.744 121.96 195.532 111.936 195.964C111.299 195.987 110.672 195.803 110.148 195.44C109.625 195.077 109.233 194.554 109.032 193.95C108.83 193.345 108.83 192.692 109.032 192.087C109.233 191.482 109.624 190.959 110.148 190.596L134.068 173.596L140.988 183.304Z" stroke="#020064" stroke-width="4" stroke-linecap="round" stroke-linejoin="round"/>
<path d="M159 177.816L155.84 180.024L146.832 186.4C146.199 186.858 145.41 187.046 144.638 186.922C143.867 186.8 143.176 186.376 142.716 185.744L140.988 183.3L134.068 173.6C133.838 173.28 133.673 172.917 133.585 172.533C133.496 172.149 133.484 171.751 133.551 171.362C133.618 170.973 133.761 170.602 133.973 170.269C134.184 169.936 134.46 169.649 134.784 169.424L146.892 160.776L148.092 162.376C148.229 162.648 148.39 162.908 148.572 163.152C148.588 163.152 148.603 163.158 148.614 163.17C148.626 163.181 148.632 163.196 148.632 163.212L155.192 172.412V172.472L157.28 175.392L159 177.816Z" stroke="#020064" stroke-width="4" stroke-linecap="round" stroke-linejoin="round"/>
<path d="M166.04 176.444L183.936 163.736L184.892 163.02C184.592 162.784 184.236 162.544 183.936 162.308C178.864 158.608 173.2 154.372 166.636 149.42C166.413 149.327 166.21 149.191 166.04 149.02C164.84 148.124 163.596 147.172 162.284 146.22L150.056 154.928C148.889 155.728 148.048 156.922 147.686 158.29C147.324 159.658 147.465 161.111 148.084 162.384C148.221 162.656 148.382 162.916 148.564 163.16C148.58 163.16 148.595 163.166 148.606 163.178C148.618 163.189 148.624 163.204 148.624 163.22L155.184 172.42" stroke="#020064" stroke-width="4" stroke-linecap="round" stroke-linejoin="round"/>
<path d="M225.752 134.032L215.848 141.072C214.852 141.07 213.857 141.01 212.868 140.892C210.589 140.624 208.348 140.104 206.184 139.34C205.045 138.949 203.929 138.491 202.844 137.968L185.244 129.916L210.236 112.14L225.752 134.032Z" stroke="#020064" stroke-width="4" stroke-linecap="round" stroke-linejoin="round"/>
<path d="M185.248 129.916L183.936 129.32" stroke="#020064" stroke-width="4" stroke-linecap="round" stroke-linejoin="round"/>
<path d="M186.024 163.856C185.996 163.802 185.952 163.756 185.899 163.725C185.846 163.694 185.786 163.678 185.724 163.68C185.474 163.428 185.194 163.206 184.892 163.02" stroke="#020064" stroke-width="4" stroke-linecap="round" stroke-linejoin="round"/>
<path d="M185.248 129.916L183.936 129.32" stroke="#020064" stroke-width="4" stroke-linecap="round" stroke-linejoin="round"/>
<path d="M186.024 163.856C185.996 163.802 185.952 163.756 185.899 163.725C185.846 163.694 185.786 163.678 185.724 163.68C185.474 163.428 185.194 163.206 184.892 163.02" stroke="#020064" stroke-width="4" stroke-linecap="round" stroke-linejoin="round"/>
</svg>
