<svg width="300" height="300" viewBox="0 0 300 300" fill="none" xmlns="http://www.w3.org/2000/svg">
<path d="M8 85C11.866 85 15 81.866 15 78C15 74.134 11.866 71 8 71C4.13401 71 1 74.134 1 78C1 81.866 4.13401 85 8 85Z" fill="white"/>
<path d="M28 83C30.7614 83 33 80.7614 33 78C33 75.2386 30.7614 73 28 73C25.2386 73 23 75.2386 23 78C23 80.7614 25.2386 83 28 83Z" stroke="white" stroke-width="4"/>
<path d="M53 78L41 84.9282V71.0718L53 78Z" fill="white"/>
<path d="M71.389 71H67.611C67.2736 71 67 71.2394 67 71.5346V84.4654C67 84.7606 67.2736 85 67.611 85H71.389C71.7264 85 72 84.7606 72 84.4654V71.5346C72 71.2394 71.7264 71 71.389 71Z" fill="white"/>
<path d="M65.389 71H61.611C61.2736 71 61 71.2394 61 71.5346V84.4654C61 84.7606 61.2736 85 61.611 85H65.389C65.7264 85 66 84.7606 66 84.4654V71.5346C66 71.2394 65.7264 71 65.389 71Z" fill="white"/>
<path d="M5.9855 22.5L1.00007 27.4853" stroke="white" stroke-width="2" stroke-linecap="round"/>
<line x1="2" y1="28" x2="28" y2="28" stroke="white" stroke-width="2" stroke-linecap="round"/>
<path d="M75.1581 22.4998L80.1438 27.4851" stroke="white" stroke-width="2" stroke-linecap="round"/>
<line x1="1" y1="-1" x2="27" y2="-1" transform="matrix(-1 0 0 1 80.0723 29)" stroke="white" stroke-width="2" stroke-linecap="round"/>
</svg>
